<?xml version="1.0"?>
<svg xmlns="http://www.w3.org/2000/svg" version="1" viewBox="0 0 24 24" enable-background="new 0 0 24 24">
    <path style="text-indent:0;text-align:start;line-height:normal;text-transform:none;block-progression:tb;-inkscape-font-specification:Bitstream Vera Sans" d="M 12 2 C 10.018267 2 8.3531683 3.5235398 8.0625 5.5 C 8.01875 5.59375 8 5.7125 8 5.8125 L 8 7.1875 C 8 7.5875 8.4125 8 8.8125 8 L 9.5 8 C 9.6676471 8 9.8185108 7.9512123 9.90625 7.84375 C 10.350061 8.5399697 11.113158 9 12 9 C 12.886842 9 13.649939 8.5399697 14.09375 7.84375 C 14.181489 7.9512123 14.332353 8 14.5 8 L 15.1875 8 C 15.5875 8 16 7.5875 16 7.1875 L 16 5.8125 C 16 5.7125 15.98125 5.59375 15.9375 5.5 C 15.646832 3.5235398 13.981733 2 12 2 z M 12 3 C 13.256282 3 14.345507 3.8234692 14.78125 5 L 14 5 C 13.544282 4.3881928 12.821524 4 12 4 C 11.178476 4 10.455718 4.3881928 10 5 L 9.21875 5 C 9.6544933 3.8234692 10.743718 3 12 3 z M 12 10 C 9.1 10 8.09375 10.40625 7.59375 11.40625 L 4.5 17 L 6.3125 17 L 6.90625 17.40625 C 7.30625 16.70625 7.9 15.5 8.5 14.5 L 8.5 18.5 L 9.3125 19 L 14.6875 19 L 15.5 18.5 L 15.5 14.5 C 16.1 15.6 16.69375 16.70625 17.09375 17.40625 L 17.6875 17 L 19.5 17 L 16.40625 11.40625 C 15.80625 10.40625 14.9 10 12 10 z M 3 18 C 2.4 18 2 18.4 2 19 L 2 20 C 2 21.1 2.9 22 4 22 L 20 22 C 21.1 22 22 21.1 22 20 L 22 19 C 22 18.4 21.6 18 21 18 L 18 18 L 15 20 L 9 20 L 6 18 L 3 18 z" overflow="visible" enable-background="accumulate" font-family="Bitstream Vera Sans"/>
</svg>
